# xmcd
#
# Track frame offsets:
#       150
#       26621
#       41848
#       62705
#       85459
#       103858
#       128324
#       144383
#       167683
#       181433
#       211184
#       234505
#       251634
#       262097
#
# Disc length: 3847 seconds
#
# Revision: 0
# Processed by: cddbd v1.5.2PL0 Copyright (c) Steve Scherf et al.
# Submitted via: WaveLab 6.10
#
DISCID=c40f050e
DTITLE=Stashenko Oksana - Dlya menya ty vse
DYEAR=1900
DGENRE=
TTITLE0=Dlya menya ty vse
TTITLE1=Lyubov'
TTITLE2=Spasi menya
TTITLE3=Ty v serdce moem
TTITLE4=Po volnam moey pamyati
TTITLE5=Iz Safo
TTITLE6=Ya znayu otvet
TTITLE7=Uletay
TTITLE8=Nezhnost'
TTITLE9=Noviy god
TTITLE10=Kanikuli v lagune
TTITLE11=Ty tak i znai
TTITLE12=Skazochniy mir
TTITLE13=Zavtra
EXTD=
EXTT0=
EXTT1=
EXTT2=
EXTT3=
EXTT4=
EXTT5=
EXTT6=
EXTT7=
EXTT8=
EXTT9=
EXTT10=
EXTT11=
EXTT12=
EXTT13=
PLAYORDER=
